Coordinates
version=1
nRows=7
nColumns=40
inDegrees=yes

Units are S.I. units (second, meters, Newtons, ...)
If the header above contains a line with 'inDegrees', this indicates whether rotational values are in degrees (yes) or radians (no).

endheader
time	pelvis_tilt	pelvis_list	pelvis_rotation	pelvis_tx	pelvis_ty	pelvis_tz	hip_flexion_r	hip_adduction_r	hip_rotation_r	knee_angle_r	knee_angle_r_beta	ankle_angle_r	subtalar_angle_r	mtp_angle_r	hip_flexion_l	hip_adduction_l	hip_rotation_l	knee_angle_l	knee_angle_l_beta	ankle_angle_l	subtalar_angle_l	mtp_angle_l	lumbar_extension	lumbar_bending	lumbar_rotation	arm_flex_r	arm_add_r	arm_rot_r	elbow_flex_r	pro_sup_r	wrist_flex_r	wrist_dev_r	arm_flex_l	arm_add_l	arm_rot_l	elbow_flex_l	pro_sup_l	wrist_flex_l	wrist_dev_l
      3.95000000	     -4.99364390	      7.41991662	    -14.91845131	      0.04930713	      1.31208988	      0.01830309	     73.79227467	      7.34980573	     15.64711128	     93.82315589	      1.63752298	      1.62867227	    -34.06030994	      0.00000000	     37.74430339	     -6.65091648	    -13.96157264	     61.18118833	      1.06781318	    -21.94069123	    -18.43974534	      0.00000000	    -36.91801188	     -8.26593756	      2.56650713	     58.36393576	      7.66840783	    -23.31393896	     50.17655526	     81.99343576	      0.00000000	      0.00000000	     66.25282019	     -1.11565941	    -11.75029676	     48.39770154	     81.49531993	      0.00000000	      0.00000000
      3.96700000	     -4.96970672	      7.24348086	    -14.64209375	      0.04937426	      1.31245742	      0.01789482	     71.91638051	      6.57286579	     14.90281545	     88.99560066	      1.55326625	      0.89896177	    -34.18470655	      0.00000000	     39.45345065	     -7.07450309	    -13.28266020	     66.41928778	      1.15923526	    -20.50406194	    -18.44486098	      0.00000000	    -37.02654607	     -8.01843363	      2.48308102	     58.50013573	      7.77097638	    -23.75065557	     50.14320626	     82.60073812	      0.00000000	      0.00000000	     66.44850160	     -1.01153530	    -11.79332078	     48.21734792	     82.04594681	      0.00000000	      0.00000000
      3.98300000	     -4.74135398	      7.65176210	    -14.34694648	      0.04962109	      1.31292873	      0.01744005	     69.52601843	      5.31002708	     14.59629461	     83.88973324	      1.46415205	      0.13246176	    -34.23236155	      0.00000000	     41.19627469	     -6.94477833	    -12.91054246	     71.53647003	      1.24854694	    -19.49324421	    -18.40930492	      0.00000000	    -37.27131663	     -8.33441646	      1.99499524	     58.44711188	      7.90624666	    -24.07049586	     50.43565845	     82.85662407	      0.00000000	      0.00000000	     66.65224327	     -0.94732981	    -11.69904040	     48.15504905	     82.31619756	      0.00000000	      0.00000000
      4.00000000	     -4.63404728	      7.81857712	    -13.87594038	      0.04985894	      1.31337280	      0.01689886	     66.84066310	      3.91565091	     13.86278560	     78.63016591	      1.37235529	     -0.81185259	    -34.28335936	      0.00000000	     43.25102656	     -6.99671654	    -12.22633373	     76.59786569	      1.33688496	    -18.59875497	    -18.28704925	      0.00000000	    -37.46016945	     -8.37388299	      1.55998525	     58.36530275	      8.03639050	    -24.59182416	     50.70900210	     83.06776774	      0.00000000	      0.00000000	     66.84136360	     -0.82649342	    -11.53236159	     48.08247781	     82.60580613	      0.00000000	      0.00000000
      4.01700000	     -4.61677821	      8.05711923	    -13.29802262	      0.05003880	      1.31364368	      0.01631874	     63.84965895	      2.39004974	     13.09098871	     73.21500360	      1.27784287	     -1.88665430	    -34.28744472	      0.00000000	     45.62157322	     -7.01075230	    -11.58035804	     81.55412770	      1.42338805	    -17.79993238	    -18.25576394	      0.00000000	    -37.57406858	     -8.44677853	      0.95915632	     58.27655664	      8.25648192	    -25.18206051	     50.89499875	     82.31514028	      0.00000000	      0.00000000	     67.00622378	     -0.74934226	    -11.28016369	     47.99287181	     82.02451768	      0.00000000	      0.00000000
      4.03300000	     -4.65890372	      8.08788106	    -12.48819949	      0.05028426	      1.31387380	      0.01563734	     60.47193860	      0.71600671	     11.80616617	     67.56124404	      1.17916616	     -3.02959105	    -34.26734867	      0.00000000	     48.28370256	     -7.08837806	    -10.66694471	     86.44181013	      1.50869420	    -17.22724104	    -18.51109171	      0.00000000	    -37.69832725	     -8.23276788	      0.29927539	     58.15644883	      8.60480704	    -26.02753601	     51.13203363	     81.91032233	      0.00000000	      0.00000000	     67.12662520	     -0.63661099	    -11.06745924	     48.06090541	     81.87039894	      0.00000000	      0.00000000
      4.05000000	     -4.67024399	      8.48772993	    -11.91476612	      0.05040704	      1.31397509	      0.01508182	     57.14366280	     -0.91728090	     10.88206375	     62.15625857	      1.08483136	     -4.81616019	    -34.20887278	      0.00000000	     50.94104999	     -7.01604180	    -10.18542798	     90.89531688	      1.58642255	    -16.40038247	    -18.70865625	      0.00000000	    -37.75583999	     -8.46710056	     -0.36131891	     57.97754681	      8.79414615	    -26.65707378	     51.41267776	     81.69091114	      0.00000000	      0.00000000	     67.24233997	     -0.52502184	    -10.77539724	     48.03409731	     81.88579999	      0.00000000	      0.00000000
